<svg width="83" height="83" viewBox="0 0 83 83" fill="none" xmlns="http://www.w3.org/2000/svg">
<path d="M65.7084 34.5833C64.7912 34.5833 63.9116 34.9477 63.263 35.5963C62.6144 36.2448 62.2501 37.1245 62.2501 38.0417V49.7308L57.1318 44.6125C55.3245 42.8195 52.8819 41.8134 50.3361 41.8134C47.7904 41.8134 45.3477 42.8195 43.5405 44.6125L41.1197 47.0679L32.543 38.4567C30.7358 36.6637 28.2931 35.6576 25.7474 35.6576C23.2016 35.6576 20.759 36.6637 18.9517 38.4567L13.8334 43.6096V24.2083C13.8334 23.2911 14.1978 22.4115 14.8463 21.7629C15.4949 21.1144 16.3745 20.75 17.2917 20.75H44.9584C45.8756 20.75 46.7553 20.3856 47.4038 19.7371C48.0524 19.0885 48.4167 18.2089 48.4167 17.2917C48.4167 16.3745 48.0524 15.4948 47.4038 14.8463C46.7553 14.1977 45.8756 13.8333 44.9584 13.8333H17.2917C14.5401 13.8333 11.9012 14.9264 9.95552 16.8721C8.00983 18.8178 6.91675 21.4567 6.91675 24.2083V66.4692C6.92586 69.0162 7.94171 71.4563 9.74274 73.2573C11.5438 75.0584 13.9839 76.0742 16.5309 76.0833H59.5526C60.4897 76.0759 61.4211 75.9361 62.3193 75.6683C64.3162 75.1082 66.0743 73.9084 67.3237 72.2529C68.5731 70.5974 69.2449 68.5778 69.2359 66.5038V38.0417C69.236 37.5816 69.1443 37.1262 68.9662 36.7021C68.7881 36.2779 68.5272 35.8935 68.1987 35.5715C67.8702 35.2494 67.4807 34.9961 67.0531 34.8265C66.6255 34.6568 66.1684 34.5741 65.7084 34.5833ZM17.2917 69.1667C16.3745 69.1667 15.4949 68.8023 14.8463 68.1538C14.1978 67.5052 13.8334 66.6255 13.8334 65.7083V53.3621L23.828 43.3675C24.3334 42.8649 25.0173 42.5827 25.7301 42.5827C26.4429 42.5827 27.1267 42.8649 27.6322 43.3675L53.4659 69.1667H17.2917ZM62.2501 65.7083C62.2279 66.378 62.0116 67.0268 61.6276 67.5758L45.9959 51.875L48.4513 49.4542C48.6993 49.2011 48.9952 49.0001 49.3218 48.8628C49.6484 48.7256 49.9991 48.6549 50.3534 48.6549C50.7077 48.6549 51.0584 48.7256 51.385 48.8628C51.7116 49.0001 52.0076 49.2011 52.2555 49.4542L62.2501 59.5179V65.7083ZM72.6251 13.8333H69.1668V10.375C69.1668 9.45779 68.8024 8.57815 68.1538 7.92959C67.5053 7.28103 66.6256 6.91667 65.7084 6.91667C64.7912 6.91667 63.9116 7.28103 63.263 7.92959C62.6144 8.57815 62.2501 9.45779 62.2501 10.375V13.8333H58.7918C57.8745 13.8333 56.9949 14.1977 56.3463 14.8463C55.6978 15.4948 55.3334 16.3745 55.3334 17.2917C55.3334 18.2089 55.6978 19.0885 56.3463 19.7371C56.9949 20.3856 57.8745 20.75 58.7918 20.75H62.2501V24.2083C62.2501 25.1255 62.6144 26.0052 63.263 26.6537C63.9116 27.3023 64.7912 27.6667 65.7084 27.6667C66.6256 27.6667 67.5053 27.3023 68.1538 26.6537C68.8024 26.0052 69.1668 25.1255 69.1668 24.2083V20.75H72.6251C73.5423 20.75 74.4219 20.3856 75.0705 19.7371C75.7191 19.0885 76.0834 18.2089 76.0834 17.2917C76.0834 16.3745 75.7191 15.4948 75.0705 14.8463C74.4219 14.1977 73.5423 13.8333 72.6251 13.8333Z" fill="#989898"/>
</svg>
