<svg width="1440" height="577" viewBox="0 0 1440 577" fill="none" xmlns="http://www.w3.org/2000/svg">
<path d="M304.394 501.744C270.524 501.744 241.832 517.795 228.841 524.819C215.85 531.844 165.942 559.445 117.459 563.961C68.9761 568.476 37.474 555.927 37.474 555.927C37.474 555.927 11.496 546.902 0 541.884V0C489.371 2.12128 797.375 2.39075 1440 0.0202468V541.904C1440 541.904 1404.01 564.211 1375.02 570.985C1334.15 580.538 1309.05 577.311 1267.56 570.985C1218.19 563.457 1146.6 529.341 1146.6 529.341C1146.6 529.341 1099.04 508.095 1066.63 501.744C1021.61 492.924 949.17 501.744 949.17 501.744C949.17 501.744 840.708 520.142 790.725 529.341C740.743 538.539 677.224 559.586 603.291 556.936C543.794 554.804 488.33 541.884 453.343 529.341C418.355 516.797 338.265 501.744 304.394 501.744Z" fill="#F3DFE0"/>
</svg>
