<svg width="13" height="11" viewBox="0 0 13 11" fill="none" xmlns="http://www.w3.org/2000/svg">
<path d="M12.7 5.25C11.4375 2.31875 9.06248 0.5 6.49998 0.5C3.93748 0.5 1.56248 2.31875 0.299981 5.25C0.265566 5.32885 0.247803 5.41396 0.247803 5.5C0.247803 5.58604 0.265566 5.67115 0.299981 5.75C1.56248 8.68125 3.93748 10.5 6.49998 10.5C9.06248 10.5 11.4375 8.68125 12.7 5.75C12.7344 5.67115 12.7522 5.58604 12.7522 5.5C12.7522 5.41396 12.7344 5.32885 12.7 5.25V5.25ZM6.49998 9.25C4.51873 9.25 2.64373 7.81875 1.56248 5.5C2.64373 3.18125 4.51873 1.75 6.49998 1.75C8.48123 1.75 10.3562 3.18125 11.4375 5.5C10.3562 7.81875 8.48123 9.25 6.49998 9.25ZM6.49998 3C6.00553 3 5.52218 3.14662 5.11106 3.42133C4.69993 3.69603 4.3795 4.08648 4.19028 4.54329C4.00106 5.00011 3.95155 5.50277 4.04802 5.98773C4.14448 6.47268 4.38258 6.91814 4.73221 7.26777C5.08184 7.6174 5.5273 7.8555 6.01225 7.95196C6.49721 8.04843 6.99987 7.99892 7.45669 7.8097C7.9135 7.62048 8.30395 7.30005 8.57865 6.88893C8.85336 6.4778 8.99998 5.99445 8.99998 5.5C8.99998 4.83696 8.73659 4.20107 8.26775 3.73223C7.79891 3.26339 7.16302 3 6.49998 3V3ZM6.49998 6.75C6.25275 6.75 6.01108 6.67669 5.80552 6.53934C5.59996 6.40199 5.43974 6.20676 5.34513 5.97835C5.25052 5.74995 5.22577 5.49861 5.274 5.25614C5.32223 5.01366 5.44128 4.79093 5.6161 4.61612C5.79091 4.4413 6.01364 4.32225 6.25612 4.27402C6.49859 4.22579 6.74993 4.25054 6.97833 4.34515C7.20674 4.43976 7.40197 4.59998 7.53932 4.80554C7.67667 5.0111 7.74998 5.25277 7.74998 5.5C7.74998 5.83152 7.61828 6.14946 7.38386 6.38388C7.14944 6.6183 6.8315 6.75 6.49998 6.75Z" fill="white"/>
</svg>
