<svg width="24" height="25" viewBox="0 0 24 25" fill="none" xmlns="http://www.w3.org/2000/svg">
<path d="M19 20.8333H5C4.73478 20.8333 4.48043 20.9431 4.29289 21.1384C4.10536 21.3338 4 21.5987 4 21.875C4 22.1513 4.10536 22.4162 4.29289 22.6116C4.48043 22.8069 4.73478 22.9167 5 22.9167H19C19.2652 22.9167 19.5196 22.8069 19.7071 22.6116C19.8946 22.4162 20 22.1513 20 21.875C20 21.5987 19.8946 21.3338 19.7071 21.1384C19.5196 20.9431 19.2652 20.8333 19 20.8333ZM11.29 18.4479C11.3851 18.5428 11.4972 18.6171 11.62 18.6667C11.7397 18.7218 11.8691 18.7503 12 18.7503C12.1309 18.7503 12.2603 18.7218 12.38 18.6667C12.5028 18.6171 12.6149 18.5428 12.71 18.4479L16.71 14.2813C16.8983 14.0851 17.0041 13.8191 17.0041 13.5417C17.0041 13.2643 16.8983 12.9982 16.71 12.8021C16.5217 12.6059 16.2663 12.4957 16 12.4957C15.7337 12.4957 15.4783 12.6059 15.29 12.8021L13 15.1979V3.12501C13 2.84874 12.8946 2.58379 12.7071 2.38844C12.5196 2.19309 12.2652 2.08334 12 2.08334C11.7348 2.08334 11.4804 2.19309 11.2929 2.38844C11.1054 2.58379 11 2.84874 11 3.12501V15.1979L8.71 12.8021C8.61676 12.705 8.50607 12.6279 8.38425 12.5754C8.26243 12.5228 8.13186 12.4957 8 12.4957C7.86814 12.4957 7.73757 12.5228 7.61575 12.5754C7.49393 12.6279 7.38324 12.705 7.29 12.8021C7.19676 12.8992 7.1228 13.0145 7.07234 13.1414C7.02188 13.2683 6.99591 13.4043 6.99591 13.5417C6.99591 13.679 7.02188 13.815 7.07234 13.9419C7.1228 14.0688 7.19676 14.1841 7.29 14.2813L11.29 18.4479Z" fill="white"/>
</svg>
