<svg width="15" height="15" viewBox="0 0 15 15" fill="none" xmlns="http://www.w3.org/2000/svg">
<path d="M6.5625 5C6.5625 2.81875 4.5 1.4125 4.4125 1.35625C4.30915 1.28639 4.18725 1.24905 4.0625 1.24905C3.93775 1.24905 3.81585 1.28639 3.7125 1.35625C3.625 1.41875 1.5625 2.84375 1.5625 5C1.5625 5.66304 1.82589 6.29892 2.29473 6.76776C2.76357 7.2366 3.39946 7.5 4.0625 7.5C4.72554 7.5 5.36143 7.2366 5.83027 6.76776C6.29911 6.29892 6.5625 5.66304 6.5625 5ZM4.0625 6.25C3.73098 6.25 3.41304 6.1183 3.17862 5.88388C2.9442 5.64946 2.8125 5.33152 2.8125 5C2.85533 4.54869 2.98799 4.11052 3.20265 3.71123C3.41732 3.31195 3.70967 2.95963 4.0625 2.675C4.41665 2.95842 4.70992 3.31044 4.92471 3.70996C5.13951 4.10948 5.27141 4.54826 5.3125 5C5.3125 5.33152 5.1808 5.64946 4.94638 5.88388C4.71196 6.1183 4.39402 6.25 4.0625 6.25ZM11.2875 1.35625C11.1841 1.28639 11.0623 1.24905 10.9375 1.24905C10.8127 1.24905 10.6909 1.28639 10.5875 1.35625C10.5 1.41875 8.4375 2.84375 8.4375 5C8.4375 5.66304 8.70089 6.29892 9.16973 6.76776C9.63857 7.2366 10.2745 7.5 10.9375 7.5C11.6005 7.5 12.2364 7.2366 12.7053 6.76776C13.1741 6.29892 13.4375 5.66304 13.4375 5C13.4375 2.81875 11.375 1.4125 11.2875 1.35625ZM10.9375 6.25C10.606 6.25 10.288 6.1183 10.0536 5.88388C9.8192 5.64946 9.6875 5.33152 9.6875 5C9.73033 4.54869 9.86299 4.11052 10.0777 3.71123C10.2923 3.31195 10.5847 2.95963 10.9375 2.675C11.2917 2.95842 11.5849 3.31044 11.7997 3.70996C12.0145 4.10948 12.1464 4.54826 12.1875 5C12.1875 5.33152 12.0558 5.64946 11.8214 5.88388C11.587 6.1183 11.269 6.25 10.9375 6.25ZM8.1625 7.60625C8.05915 7.53639 7.93725 7.49905 7.8125 7.49905C7.68775 7.49905 7.56585 7.53639 7.4625 7.60625C7.375 7.66875 5.3125 9.09374 5.3125 11.25C5.3125 11.913 5.57589 12.5489 6.04473 13.0178C6.51357 13.4866 7.14946 13.75 7.8125 13.75C8.47554 13.75 9.11143 13.4866 9.58027 13.0178C10.0491 12.5489 10.3125 11.913 10.3125 11.25C10.3125 9.06875 8.25 7.6625 8.1625 7.60625ZM7.8125 12.5C7.48098 12.5 7.16304 12.3683 6.92862 12.1339C6.6942 11.8995 6.5625 11.5815 6.5625 11.25C6.60533 10.7987 6.73799 10.3605 6.95265 9.96123C7.16732 9.56195 7.45967 9.20963 7.8125 8.925C8.16665 9.20842 8.45992 9.56044 8.67471 9.95996C8.88951 10.3595 9.02141 10.7983 9.0625 11.25C9.0625 11.5815 8.9308 11.8995 8.69638 12.1339C8.46196 12.3683 8.14402 12.5 7.8125 12.5Z" fill="white"/>
</svg>
