<svg width="13" height="13" viewBox="0 0 13 13" fill="none" xmlns="http://www.w3.org/2000/svg">
<path d="M11.9167 5.95833C11.9144 5.92949 11.9144 5.90051 11.9167 5.87167C11.9167 5.72 11.8734 5.56833 11.8463 5.41667C11.7472 4.9679 11.5888 4.53435 11.375 4.1275C11.0102 3.38093 10.4784 2.72833 9.8209 2.22018C9.16341 1.71203 8.39782 1.36197 7.58338 1.19708L7.12838 1.12667H7.04171H6.88463H6.84129L6.50004 1.08333C6.31588 1.08333 6.13171 1.08333 5.95838 1.08333H5.87171L5.41671 1.19167C4.37673 1.40492 3.42235 1.91907 2.67216 2.67022C1.92197 3.42138 1.40904 4.37642 1.19713 5.41667C1.17004 5.56833 1.14838 5.72 1.12671 5.87167C1.12902 5.90051 1.12902 5.92949 1.12671 5.95833C1.12671 6.13708 1.12671 6.32125 1.12671 6.5C1.12671 6.67875 1.12671 6.86833 1.12671 7.04167C1.12902 7.07051 1.12902 7.09949 1.12671 7.12833C1.12671 7.28 1.17004 7.43167 1.19713 7.58333C1.28242 8.03001 1.4263 8.46348 1.62504 8.8725C1.98993 9.61907 2.5217 10.2717 3.17919 10.7798C3.83668 11.288 4.60227 11.638 5.41671 11.8029L5.87171 11.8733L5.95838 11.9167H6.14254H6.21838C6.31588 11.9167 6.40796 11.9167 6.50546 11.9167C6.68963 11.9167 6.87379 11.9167 7.04713 11.8896H7.13379L7.58338 11.8083C8.62335 11.5951 9.57773 11.0809 10.3279 10.3298C11.0781 9.57862 11.591 8.62358 11.803 7.58333C11.83 7.43167 11.8517 7.28 11.8734 7.12833C11.8852 7.09821 11.8997 7.0692 11.9167 7.04167C11.9167 6.86292 11.9438 6.67875 11.9438 6.5C11.9438 6.32125 11.9167 6.13167 11.9167 5.95833ZM7.12838 2.22083L7.39921 2.25875C8.37842 2.46776 9.25503 3.00943 9.88004 3.79167H6.18588L7.12838 2.22083ZM5.64421 2.26417L5.86088 2.23167L3.99754 5.41667L3.08754 3.835C3.71784 3.02701 4.61408 2.46854 5.61713 2.25875L5.64421 2.26417ZM2.48629 8.125C2.38841 7.88494 2.31228 7.63658 2.25879 7.38292C2.25879 7.26375 2.21546 7.13917 2.20463 7.01458C2.20202 6.99299 2.20202 6.97117 2.20463 6.94958C2.17573 6.6578 2.17573 6.36387 2.20463 6.07208C2.20202 6.05049 2.20202 6.02867 2.20463 6.00708C2.20463 5.8825 2.23713 5.75792 2.25879 5.63875C2.30644 5.39664 2.37532 5.15919 2.46463 4.92917L4.33338 8.125H2.48629ZM5.89879 10.7846L5.62796 10.7467C4.63817 10.5421 3.75103 9.9979 3.12004 9.20833H6.81421L5.89879 10.7846ZM5.56296 8.125L4.62588 6.5L5.56296 4.875H7.43713L8.37421 6.5L7.43713 8.125H5.56296ZM7.38296 10.7412L7.16629 10.7737L9.00254 7.58333L9.91254 9.165C9.28225 9.97299 8.38601 10.5315 7.38296 10.7412ZM10.8117 6.94958C10.8143 6.97117 10.8143 6.99299 10.8117 7.01458C10.8117 7.13917 10.7792 7.26375 10.7575 7.38292C10.7087 7.61767 10.6398 7.84782 10.5517 8.07083L8.66671 4.875H10.4921C10.59 5.11506 10.6661 5.36341 10.7196 5.61708C10.7196 5.73625 10.763 5.86083 10.7738 5.98542C10.7764 6.007 10.7764 6.02883 10.7738 6.05042C10.8027 6.3422 10.8027 6.63613 10.7738 6.92792L10.8117 6.94958Z" fill="white"/>
</svg>
