<svg width="13" height="13" viewBox="0 0 13 13" fill="none" xmlns="http://www.w3.org/2000/svg">
<path d="M11.7595 6.11542L10.4866 4.87501V3.05501C10.4866 2.91135 10.4295 2.77357 10.3279 2.67199C10.2263 2.57041 10.0885 2.51334 9.94489 2.51334H8.15197L6.88447 1.24042C6.83411 1.18965 6.77421 1.14936 6.7082 1.12186C6.64219 1.09436 6.57139 1.0802 6.49989 1.0802C6.42838 1.0802 6.35758 1.09436 6.29157 1.12186C6.22557 1.14936 6.16566 1.18965 6.1153 1.24042L4.87489 2.51334H3.05489C2.91123 2.51334 2.77345 2.57041 2.67187 2.67199C2.57029 2.77357 2.51322 2.91135 2.51322 3.05501V4.87501L1.2403 6.11542C1.18953 6.16578 1.14924 6.22569 1.12174 6.2917C1.09424 6.3577 1.08008 6.4285 1.08008 6.50001C1.08008 6.57151 1.09424 6.64231 1.12174 6.70832C1.14924 6.77433 1.18953 6.83424 1.2403 6.88459L2.51322 8.15209V9.94501C2.51322 10.0887 2.57029 10.2264 2.67187 10.328C2.77345 10.4296 2.91123 10.4867 3.05489 10.4867H4.87489L6.14239 11.7596C6.19274 11.8104 6.25265 11.8507 6.31866 11.8782C6.38466 11.9057 6.45546 11.9198 6.52697 11.9198C6.59848 11.9198 6.66927 11.9057 6.73528 11.8782C6.80129 11.8507 6.8612 11.8104 6.91155 11.7596L8.17905 10.4867H9.97197C10.1156 10.4867 10.2534 10.4296 10.355 10.328C10.4566 10.2264 10.5136 10.0887 10.5136 9.94501V8.15209L11.7866 6.88459C11.8356 6.83247 11.8738 6.77115 11.899 6.70417C11.9242 6.63719 11.9359 6.56588 11.9334 6.49436C11.9309 6.42284 11.9142 6.35253 11.8843 6.28749C11.8545 6.22245 11.8121 6.16397 11.7595 6.11542ZM9.56572 7.54542C9.51454 7.59559 9.47382 7.65542 9.44593 7.72143C9.41803 7.78745 9.40352 7.85834 9.40322 7.93001V9.40334H7.92989C7.85822 9.40364 7.78732 9.41815 7.72131 9.44605C7.65529 9.47394 7.59547 9.51466 7.5453 9.56584L6.49989 10.6113L5.45447 9.56584C5.4043 9.51466 5.34448 9.47394 5.27846 9.44605C5.21245 9.41815 5.14155 9.40364 5.06989 9.40334H3.59655V7.93001C3.59625 7.85834 3.58174 7.78745 3.55384 7.72143C3.52595 7.65542 3.48523 7.59559 3.43405 7.54542L2.38864 6.50001L3.43405 5.45459C3.48523 5.40442 3.52595 5.3446 3.55384 5.27858C3.58174 5.21257 3.59625 5.14167 3.59655 5.07001V3.59667H5.06989C5.14155 3.59638 5.21245 3.58186 5.27846 3.55397C5.34448 3.52607 5.4043 3.48536 5.45447 3.43417L6.49989 2.38876L7.5453 3.43417C7.59547 3.48536 7.65529 3.52607 7.72131 3.55397C7.78732 3.58186 7.85822 3.59638 7.92989 3.59667H9.40322V5.07001C9.40352 5.14167 9.41803 5.21257 9.44593 5.27858C9.47382 5.3446 9.51454 5.40442 9.56572 5.45459L10.6111 6.50001L9.56572 7.54542Z" fill="white"/>
</svg>
