<svg width="557" height="346" viewBox="0 0 557 346" fill="none" xmlns="http://www.w3.org/2000/svg">
<path d="M12.6427 87.0394C22.3373 62.1671 33.2891 50.6826 49.4169 29.3988C55.365 21.549 57.8029 16.2214 65.2383 9.75824C98.1223 -18.8257 131.878 23.9469 175.133 29.3988C262.96 40.4684 317.422 7.2494 401.765 34.0954C468.97 55.4867 555.314 55.908 556.986 126.32C557.517 148.678 542.875 181.826 542.875 181.826C533.468 215.414 537.938 255.299 509.949 288.995C462.576 346.027 381.08 366.703 322.658 321.018C307.085 308.841 304.833 295.345 289.732 282.591C248.666 247.907 202.072 248.433 156.319 248.433C110.565 248.433 75.4319 267.665 40.0096 239.04C23.2602 225.504 15.9331 214.188 7.93907 194.208C-1.94424 169.506 -1.06817 152.697 2.38018 126.32C4.43537 110.6 6.88419 101.813 12.6427 87.0394Z" fill="#F3DFE0"/>
</svg>
