<svg width="1440" height="911" viewBox="0 0 1440 911" fill="none" xmlns="http://www.w3.org/2000/svg">
<path d="M1145.96 95.5395C1179.84 95.5861 1208.57 75.5871 1221.58 66.8353C1234.59 58.0836 1284.56 23.6926 1333.07 18.1216C1381.57 12.5507 1413.06 28.2617 1413.06 28.2617C1413.06 28.2617 1430.03 38.7841 1441.53 45.0641L1440.33 910.876C950.797 907.554 642.695 901.201 -0.156789 903.276L0.525089 44.3296C0.525089 44.3296 46.0725 16.0384 75.0788 7.62091C115.983 -4.24921 141.084 -0.186585 182.579 7.76884C231.955 17.2353 303.507 59.9272 303.507 59.9272C303.507 59.9272 351.046 86.5175 383.46 94.4902C428.481 105.564 500.96 94.6519 500.96 94.6519C500.96 94.6519 609.491 71.8325 659.507 60.4171C709.522 49.0017 773.099 22.8122 847.054 26.2225C906.567 28.9668 962.028 45.1731 997.006 60.8815C1031.98 76.59 1112.08 95.4929 1145.96 95.5395Z" fill="#F3DFE0"/>
</svg>
