<svg width="214" height="29" viewBox="0 0 214 29" fill="none" xmlns="http://www.w3.org/2000/svg">
<g clip-path="url(#clip0_56_64)">
<path d="M34.0858 22.5848V2.27582H35.5742V22.5848H34.0858Z" fill="white"/>
<path d="M62.9501 22.5848H61.4862V14.3298C61.4862 12.4422 61.1934 11.0564 60.5956 10.1485C60.2956 9.71554 59.8847 9.36736 59.404 9.13883C58.9233 8.9103 58.3898 8.80944 57.8568 8.84634C56.6184 8.84309 55.4269 9.30981 54.5324 10.1485C53.5474 11.047 52.8431 12.2007 52.5011 13.4756V22.5848H51.0372V14.3298C51.0372 12.4243 50.7444 11.0325 50.1588 10.1485C49.8598 9.71737 49.4509 9.37035 48.9726 9.14191C48.4942 8.91347 47.9632 8.81158 47.4322 8.84634C46.2008 8.84025 45.0137 9.29543 44.1139 10.1186C43.116 11.0105 42.3986 12.1626 42.0461 13.4398V22.5848H40.5821V7.72935H41.9607V11.3133C42.5259 10.1793 43.3838 9.20947 44.4494 8.49989C45.4351 7.85045 46.5979 7.50699 47.786 7.51431C48.9322 7.4717 50.0503 7.86809 50.903 8.61936C51.7336 9.39016 52.2495 10.4304 52.3547 11.5462C52.9575 10.3641 53.8401 9.34007 54.9289 8.55963C55.9258 7.883 57.1136 7.52801 58.3265 7.54418C59.06 7.52242 59.7882 7.67404 60.4492 7.9862C61.0309 8.29039 61.5242 8.73435 61.8827 9.27641C62.2921 9.90619 62.5718 10.6083 62.7061 11.3431C62.8781 12.2572 62.9598 13.1853 62.9501 14.1147V22.5848Z" fill="white"/>
<path d="M66.1159 18.3199C66.0988 17.4732 66.3883 16.6479 66.9333 15.9903C67.5373 15.2946 68.3148 14.7637 69.1902 14.4492C70.2465 14.0609 71.3684 13.8724 72.4963 13.8937C73.3137 13.8956 74.1296 13.9615 74.9363 14.0908C75.7037 14.2082 76.459 14.3921 77.1932 14.6404V13.2367C77.2229 12.6381 77.1303 12.0397 76.9208 11.4766C76.7113 10.9135 76.3892 10.397 75.9733 9.95738C75.531 9.53703 75.0045 9.21116 74.427 9.00038C73.8495 8.7896 73.2336 8.69851 72.6183 8.73286C71.8071 8.74038 71.0044 8.89638 70.2516 9.1928C69.3612 9.5306 68.5154 9.97179 67.7324 10.5069L67.1224 9.47952C68.0214 8.87651 68.9898 8.3793 70.0076 7.99816C70.8908 7.67114 71.8266 7.50122 72.7708 7.49641C73.5602 7.45614 74.3496 7.57477 75.0903 7.84497C75.831 8.11517 76.5072 8.5312 77.0773 9.06736C77.6201 9.6413 78.0396 10.3161 78.3109 11.0518C78.5823 11.7875 78.7001 12.5691 78.6572 13.3502V20.7211C78.6438 20.9056 78.7002 21.0885 78.8158 21.2348C78.9471 21.3587 79.1215 21.4291 79.3037 21.4319V22.6266C79.1269 22.6266 78.9805 22.6565 78.8646 22.6565H78.5718C78.2339 22.6162 77.9243 22.4518 77.7056 22.1965C77.5078 21.9609 77.3905 21.6705 77.3701 21.3662V20.1955C76.6482 21.0709 75.7183 21.76 74.6618 22.2025C73.5692 22.6777 72.3865 22.9219 71.191 22.9193C70.29 22.9301 69.4001 22.725 68.5986 22.322C67.8466 21.9459 67.2139 21.3758 66.7686 20.6733C66.325 19.9664 66.0984 19.1494 66.1159 18.3199ZM76.5954 19.5504C76.773 19.3333 76.9206 19.0943 77.0346 18.8396C77.125 18.6398 77.1748 18.4248 77.181 18.2064V15.7514C76.4702 15.4841 75.7349 15.284 74.9851 15.1541C74.2118 15.0197 73.4281 14.9518 72.6427 14.951C71.343 14.8933 70.0537 15.2022 68.928 15.841C68.494 16.0778 68.133 16.4246 67.883 16.8449C67.6329 17.2653 67.503 17.7438 67.5067 18.2303C67.5029 18.8461 67.6762 19.4506 68.0069 19.9745C68.3461 20.5156 68.8261 20.9588 69.3976 21.2587C70.0309 21.5911 70.7411 21.7578 71.4594 21.7425C72.5082 21.7618 73.5487 21.558 74.5093 21.1452C75.3383 20.8067 76.0589 20.2558 76.5954 19.5504Z" fill="white"/>
<path d="M89.2465 22.8954C88.2478 22.905 87.2603 22.6883 86.3613 22.2622C85.4813 21.8513 84.7014 21.2606 84.0738 20.53C83.4407 19.7947 82.9377 18.9609 82.5855 18.063C82.2229 17.1636 82.0386 16.2047 82.0426 15.2377C82.0401 14.2424 82.2135 13.2542 82.555 12.3168C82.88 11.408 83.3766 10.5671 84.019 9.83792C84.6411 9.12769 85.4023 8.5468 86.2576 8.12958C87.1497 7.70252 88.1315 7.48569 89.1245 7.49641C90.36 7.46854 91.5734 7.81939 92.5953 8.49992C93.5781 9.16504 94.4279 10.0012 95.1023 10.9669V7.72937H96.4443V22.9014C96.4866 24.1029 96.1385 25.2867 95.45 26.2822C94.7878 27.196 93.8739 27.9066 92.8149 28.331C91.6912 28.7839 90.486 29.0114 89.2709 29C87.7999 29.0739 86.3367 28.7472 85.0437 28.0563C84.0098 27.4373 83.1419 26.5853 82.5123 25.5714L83.5066 24.9143C84.0724 25.8761 84.9233 26.6468 85.9465 27.1244C86.9801 27.602 88.1097 27.8469 89.2526 27.8412C90.2333 27.8523 91.2055 27.6631 92.1073 27.2857C92.9458 26.9425 93.6672 26.3728 94.1874 25.6431C94.7249 24.8501 94.9957 23.9123 94.962 22.9611V19.6818C94.3602 20.6591 93.5088 21.4661 92.4916 22.0233C91.5061 22.5862 90.3874 22.8869 89.2465 22.8954ZM89.5942 21.6649C90.2349 21.6639 90.8699 21.5464 91.4668 21.3185C92.07 21.0947 92.6339 20.7804 93.1382 20.3866C93.6227 20.0181 94.0465 19.579 94.3947 19.0845C94.7169 18.6639 94.9266 18.1711 95.0047 17.6509V12.7469C94.7137 11.9799 94.2606 11.2817 93.675 10.6981C93.1018 10.1096 92.4211 9.63142 91.6681 9.28838C90.9544 8.95938 90.1756 8.78809 89.3868 8.78663C88.5351 8.78186 87.696 8.98729 86.9469 9.38395C86.2356 9.75412 85.612 10.267 85.1169 10.8892C84.6144 11.5183 84.2265 12.2276 83.9702 12.9858C83.7137 13.7287 83.5818 14.5073 83.5798 15.2915C83.5738 16.1254 83.7311 16.9527 84.0433 17.7285C84.351 18.4818 84.793 19.1756 85.3487 19.7774C85.8756 20.356 86.5141 20.8269 87.2275 21.1632C87.9684 21.5008 88.777 21.6722 89.5942 21.6649Z" fill="white"/>
<path d="M101.013 4.31866V1.6785H102.477V4.31866H101.013ZM101.013 22.6087V7.67562H102.477V22.5848L101.013 22.6087Z" fill="white"/>
<path d="M119.52 22.5848H118.056V14.3298C118.056 12.4243 117.775 11.0325 117.22 10.1485C116.941 9.71691 116.547 9.36777 116.081 9.13841C115.614 8.90905 115.093 8.8081 114.573 8.84635C113.691 8.8505 112.823 9.05498 112.035 9.44367C111.207 9.83942 110.471 10.3963 109.87 11.0803C109.262 11.7642 108.809 12.5662 108.54 13.4338V22.5848H107.076V7.72935H108.449V11.3133C108.86 10.5551 109.417 9.88176 110.09 9.33018C110.773 8.76863 111.546 8.32066 112.377 8.00412C113.206 7.68127 114.09 7.51508 114.982 7.51432C115.715 7.49327 116.443 7.64485 117.104 7.95634C117.677 8.25352 118.161 8.6921 118.507 9.22863C118.898 9.8604 119.161 10.5601 119.282 11.2894C119.45 12.212 119.529 13.1478 119.52 14.0849V22.5848Z" fill="white"/>
<path d="M130.091 22.8954C129.092 22.905 128.105 22.6883 127.206 22.2622C126.326 21.8513 125.546 21.2606 124.918 20.53C124.285 19.7935 123.78 18.96 123.424 18.063C123.066 17.1624 122.884 16.2041 122.887 15.2377C122.885 14.2424 123.058 13.2542 123.399 12.3168C123.724 11.408 124.221 10.5671 124.863 9.83792C125.485 9.12769 126.247 8.5468 127.102 8.12958C127.994 7.70252 128.976 7.48569 129.969 7.49641C131.204 7.46854 132.418 7.81939 133.44 8.49992C134.421 9.16649 135.271 10.0024 135.947 10.9669V7.72937H137.289V22.9014C137.331 24.1029 136.983 25.2867 136.294 26.2822C135.632 27.196 134.718 27.9066 133.659 28.331C132.536 28.7839 131.33 29.0114 130.115 29C128.644 29.0739 127.181 28.7472 125.888 28.0563C124.853 27.4389 123.985 26.5866 123.357 25.5714L124.351 24.9143C124.917 25.8761 125.768 26.6468 126.791 27.1244C127.824 27.6026 128.954 27.8476 130.097 27.8412C131.078 27.8523 132.05 27.6631 132.952 27.2857C133.79 26.9425 134.512 26.3728 135.032 25.6431C135.569 24.8501 135.84 23.9123 135.806 22.9611V19.6818C135.213 20.6554 134.372 21.462 133.366 22.0233C132.372 22.5913 131.242 22.8921 130.091 22.8954ZM130.439 21.6649C131.079 21.6639 131.714 21.5464 132.311 21.3185C132.914 21.0947 133.478 20.7804 133.983 20.3866C134.467 20.0181 134.891 19.579 135.239 19.0845C135.561 18.6639 135.771 18.1711 135.849 17.6509V12.7469C135.556 11.981 135.103 11.2833 134.519 10.6981C133.946 10.1096 133.265 9.63142 132.513 9.28838C131.799 8.95938 131.02 8.78809 130.231 8.78663C129.38 8.78186 128.54 8.98729 127.791 9.38395C127.08 9.75412 126.456 10.267 125.961 10.8892C125.459 11.5183 125.071 12.2276 124.815 12.9858C124.558 13.7287 124.426 14.5073 124.424 15.2915C124.418 16.1254 124.576 16.9527 124.888 17.7285C125.193 18.483 125.635 19.1771 126.193 19.7774C126.727 20.3585 127.374 20.8296 128.096 21.1632C128.83 21.4974 129.63 21.6687 130.439 21.6649Z" fill="white"/>
<path d="M164.085 22.5848L153.569 11.7673C152.727 10.8952 152.054 10.1525 151.55 9.53925C151.112 9.03484 150.747 8.47413 150.464 7.87272C150.206 7.28833 150.102 6.64927 150.164 6.01522C150.226 5.38118 150.451 4.77283 150.818 4.24698C151.282 3.58266 151.912 3.0459 152.648 2.68797C153.45 2.2867 154.34 2.08175 155.24 2.09064C156.067 2.07695 156.887 2.24643 157.638 2.58642C158.306 2.88633 158.879 3.35675 159.297 3.94832C159.704 4.5365 159.917 5.23289 159.907 5.94337C159.91 6.74325 159.649 7.52268 159.163 8.16541C158.605 8.88541 157.939 9.51789 157.186 10.041C156.375 10.6383 155.515 11.2356 154.594 11.7971C153.781 12.3467 153.014 12.8982 152.294 13.4517C151.631 13.9528 151.058 14.5584 150.598 15.2437C150.179 15.9041 149.967 16.6705 149.988 17.4478C149.959 18.2695 150.239 19.0731 150.775 19.7057C151.318 20.3194 152.007 20.7915 152.782 21.0795C153.57 21.386 154.411 21.5441 155.259 21.5454C156.322 21.5571 157.371 21.3065 158.309 20.8167C159.237 20.3171 160.05 19.6336 160.694 18.8097C161.376 17.943 161.904 16.9696 162.255 15.9306C162.617 14.8184 162.798 13.6573 162.792 12.49H164.085C164.091 13.8152 163.868 15.1319 163.426 16.3846C163.007 17.5739 162.377 18.6818 161.566 19.6579C160.785 20.5939 159.818 21.3642 158.723 21.9217C157.663 22.4361 156.501 22.7185 155.319 22.7494C154.136 22.7804 152.96 22.5591 151.873 22.1009C150.914 21.7056 150.077 21.0713 149.446 20.2612C148.832 19.4413 148.513 18.4459 148.537 17.4299C148.522 16.5101 148.773 15.6049 149.263 14.8196C149.782 14.0309 150.436 13.3358 151.196 12.7648C152.01 12.1476 152.859 11.5502 153.746 10.9728C154.704 10.3755 155.539 9.77818 156.265 9.29435C156.899 8.85523 157.466 8.33033 157.949 7.73534C158.338 7.25839 158.553 6.66741 158.559 6.05686C158.568 5.67466 158.485 5.29569 158.318 4.95029C158.151 4.60489 157.903 4.30266 157.595 4.06778C156.922 3.53571 156.075 3.25993 155.21 3.29126C154.554 3.27934 153.904 3.42494 153.319 3.71536C152.788 3.97502 152.335 4.36374 152.001 4.8443C151.684 5.30216 151.516 5.84379 151.52 6.39734C151.527 6.75397 151.608 7.10547 151.757 7.4307C151.995 7.92962 152.298 8.39559 152.66 8.81649C153.112 9.37001 153.766 10.0808 154.624 10.9489L166.074 22.5848H164.085Z" fill="white"/>
<path d="M175.065 12.2571C175.067 11.0201 175.29 9.79313 175.724 8.63131C176.162 7.44087 176.81 6.33498 177.639 5.36395C178.487 4.36334 179.541 3.54918 180.732 2.97466C182.033 2.36457 183.461 2.05984 184.904 2.08465C186.574 2.03768 188.222 2.47174 189.643 3.33306C190.907 4.10766 191.921 5.21522 192.571 6.52873L191.351 7.21565C190.948 6.40235 190.377 5.68012 189.673 5.09496C188.97 4.50981 188.149 4.07454 187.264 3.81689C186.473 3.5833 185.651 3.4626 184.825 3.4585C183.611 3.43682 182.41 3.70109 181.323 4.22904C180.317 4.72903 179.431 5.43364 178.725 6.29578C178.025 7.15199 177.486 8.12269 177.133 9.16292C176.773 10.1874 176.589 11.2633 176.59 12.3467C176.584 13.5166 176.801 14.6773 177.23 15.7693C177.647 16.8242 178.248 17.8004 179.005 18.6544C179.745 19.4822 180.639 20.1635 181.64 20.6614C182.652 21.1528 183.768 21.4026 184.898 21.3901C185.769 21.3855 186.633 21.2465 187.46 20.978C188.342 20.6874 189.167 20.2511 189.9 19.6877C190.679 19.0734 191.305 18.293 191.73 17.406L193.017 18.0033C192.573 19.0143 191.879 19.9012 190.998 20.5837C190.107 21.2863 189.097 21.8302 188.015 22.1905C186.969 22.5455 185.87 22.7292 184.764 22.7341C183.409 22.747 182.071 22.4375 180.866 21.8321C179.686 21.2424 178.637 20.4305 177.779 19.4428C176.912 18.4386 176.232 17.292 175.772 16.056C175.308 14.841 175.068 13.5545 175.065 12.2571Z" fill="white"/>
<path d="M202.673 22.8954C201.67 22.9103 200.676 22.7155 199.757 22.324C198.837 21.9326 198.014 21.3536 197.341 20.6256C195.982 19.1515 195.23 17.2358 195.231 15.2497C195.222 14.2282 195.413 13.2146 195.792 12.263C196.15 11.3541 196.68 10.5192 197.354 9.80208C198.025 9.09413 198.831 8.52185 199.726 8.11763C200.653 7.7122 201.658 7.5084 202.673 7.5203C203.681 7.50833 204.681 7.71219 205.601 8.11763C206.492 8.52655 207.295 9.09826 207.967 9.80208C208.651 10.5165 209.189 11.3517 209.553 12.263C209.927 13.2158 210.116 14.2289 210.108 15.2497C210.112 16.2526 209.923 17.2474 209.553 18.1825C209.193 19.0826 208.668 19.9106 208.004 20.6256C207.336 21.3336 206.529 21.9025 205.631 22.2981C204.699 22.7002 203.691 22.9038 202.673 22.8954ZM196.695 15.2377C196.679 16.3586 196.956 17.4649 197.5 18.4513C198.01 19.3822 198.75 20.1729 199.653 20.751C200.546 21.3148 201.586 21.6146 202.648 21.6146C203.711 21.6146 204.75 21.3148 205.643 20.751C206.558 20.1625 207.304 19.3543 207.809 18.4035C208.349 17.4136 208.626 16.3064 208.614 15.184C208.627 14.0691 208.35 12.9694 207.809 11.9883C207.301 11.0475 206.561 10.2465 205.655 9.65872C204.768 9.08383 203.728 8.7773 202.663 8.7773C201.599 8.7773 200.559 9.08383 199.672 9.65872C198.76 10.2476 198.014 11.0505 197.5 11.9942C196.956 12.9912 196.679 14.1072 196.695 15.2377Z" fill="white"/>
<path d="M212.713 22.5848V20.1955H214V22.5848H212.713Z" fill="white"/>
<path d="M19.0558 6.19424C18.4681 4.69118 17.506 3.35588 16.2568 2.30983C15.0077 1.26378 13.5113 0.540186 11.9038 0.20489C10.2963 -0.130406 8.62864 -0.0667644 7.05264 0.390025C5.47663 0.846814 4.04228 1.68225 2.88009 2.82032C1.7179 3.95839 0.864755 5.36298 0.398285 6.90627C-0.0681858 8.44957 -0.133176 10.0826 0.209226 11.6567C0.551629 13.2309 1.29056 14.6963 2.35877 15.9194C3.42699 17.1426 4.7906 18.0848 6.32552 18.6604C6.91323 20.1634 7.87541 21.4987 9.12453 22.5448C10.3736 23.5908 11.87 24.3144 13.4776 24.6497C15.0851 24.985 16.7527 24.9214 18.3287 24.4646C19.9047 24.0078 21.3391 23.1724 22.5013 22.0343C23.6635 20.8962 24.5166 19.4916 24.9831 17.9483C25.4495 16.405 25.5145 14.772 25.1721 13.1979C24.8297 11.6237 24.0908 10.1584 23.0226 8.93516C21.9544 7.71197 20.5908 6.76975 19.0558 6.19424ZM17.0185 8.1893C17.1111 8.65776 17.158 9.13377 17.1588 9.61093C17.1561 10.1721 17.0886 10.7312 16.9575 11.2775L13.8466 8.24903C14.406 8.11784 14.9793 8.05167 15.5545 8.05192C16.0418 8.05265 16.5279 8.09865 17.0063 8.1893H17.0185ZM15.7985 13.6727C15.293 14.3827 14.6632 14.9995 13.9381 15.4946L9.53402 11.1819C10.0305 10.4744 10.6498 9.8578 11.364 9.36005L15.7985 13.6727ZM5.63624 15.4946C4.30055 14.5929 3.30858 13.2824 2.81615 11.7687C2.32372 10.255 2.35875 8.62409 2.91572 7.13204C3.28347 6.14641 3.86773 5.25187 4.62724 4.5116C5.38674 3.77134 6.30297 3.2034 7.31119 2.8479C8.31942 2.4924 9.39507 2.35801 10.4621 2.45423C11.5292 2.55045 12.5617 2.87493 13.4867 3.40475C14.4155 3.93175 15.2134 4.65394 15.8229 5.51927H15.5057C12.8892 5.53507 10.3858 6.56646 8.54479 8.38722C6.70374 10.208 5.6753 12.6694 5.68504 15.2317C5.68504 15.3333 5.68504 15.4468 5.68504 15.5423L5.63624 15.4946ZM8.30796 16.6115C8.21869 16.1426 8.17175 15.6669 8.16766 15.1899C8.17271 14.6266 8.24227 14.0656 8.37506 13.5174L11.4677 16.5458C10.9079 16.6759 10.335 16.744 9.75972 16.7489C9.29633 16.7609 8.8328 16.731 8.37506 16.6593L8.30796 16.6115ZM15.5545 22.4056C14.3638 22.4 13.192 22.1132 12.1386 21.5693C11.0848 21.0256 10.1823 20.2383 9.50962 19.2756H9.82681C12.4403 19.2693 14.9451 18.2507 16.7942 16.4422C18.6434 14.6336 19.6867 12.1821 19.6963 9.62287V9.31227C20.9903 10.1753 21.9676 11.4219 22.4847 12.869C23.0018 14.3161 23.0315 15.8874 22.5693 17.3522C22.1069 18.8191 21.1757 20.1018 19.9128 21.0115C18.65 21.9213 17.1223 22.4099 15.5545 22.4056Z" fill="url(#paint0_linear_56_64)"/>
</g>
<defs>
<linearGradient id="paint0_linear_56_64" x1="3.83044e-06" y1="12.4243" x2="25.3814" y2="12.4243" gradientUnits="userSpaceOnUse">
<stop offset="0.02" stop-color="#DBC1CC"/>
<stop offset="1" stop-color="white"/>
</linearGradient>
<clipPath id="clip0_56_64">
<rect width="214" height="29" fill="white"/>
</clipPath>
</defs>
</svg>
