<svg width="56" height="56" viewBox="0 0 56 56" fill="none" xmlns="http://www.w3.org/2000/svg">
<path d="M44.3332 23.3333C43.7143 23.3333 43.1208 23.5792 42.6833 24.0168C42.2457 24.4543 41.9998 25.0478 41.9998 25.6667V33.5533L38.5465 30.1C37.3272 28.8903 35.6791 28.2115 33.9615 28.2115C32.2439 28.2115 30.5959 28.8903 29.3765 30.1L27.7432 31.7567L21.9565 25.9467C20.7372 24.7369 19.0891 24.0581 17.3715 24.0581C15.6539 24.0581 14.0059 24.7369 12.7865 25.9467L9.33317 29.4233V16.3333C9.33317 15.7145 9.579 15.121 10.0166 14.6834C10.4542 14.2458 11.0477 14 11.6665 14H30.3332C30.952 14 31.5455 13.7542 31.9831 13.3166C32.4207 12.879 32.6665 12.2855 32.6665 11.6667C32.6665 11.0478 32.4207 10.4543 31.9831 10.0167C31.5455 9.57916 30.952 9.33333 30.3332 9.33333H11.6665C9.80999 9.33333 8.02951 10.0708 6.71676 11.3836C5.404 12.6963 4.6665 14.4768 4.6665 16.3333V44.8467C4.67265 46.5651 5.35804 48.2115 6.5732 49.4266C7.78835 50.6418 9.43469 51.3272 11.1532 51.3333H40.1798C40.8121 51.3283 41.4406 51.234 42.0465 51.0533V51.0533C43.3939 50.6754 44.58 49.8659 45.423 48.7489C46.266 47.632 46.7192 46.2693 46.7132 44.87V25.6667C46.7132 25.3563 46.6514 25.049 46.5312 24.7628C46.411 24.4766 46.235 24.2173 46.0133 24C45.7917 23.7827 45.5289 23.6118 45.2404 23.4974C44.9519 23.3829 44.6435 23.3271 44.3332 23.3333ZM11.6665 46.6667C11.0477 46.6667 10.4542 46.4208 10.0166 45.9833C9.579 45.5457 9.33317 44.9522 9.33317 44.3333V36.0033L16.0765 29.26C16.4175 28.9209 16.8789 28.7305 17.3598 28.7305C17.8408 28.7305 18.3022 28.9209 18.6432 29.26L36.0732 46.6667H11.6665ZM41.9998 44.3333C41.9849 44.7852 41.8389 45.2229 41.5798 45.5933L31.0332 35L32.6898 33.3667C32.8571 33.1959 33.0568 33.0603 33.2772 32.9677C33.4975 32.8751 33.7341 32.8274 33.9732 32.8274C34.2122 32.8274 34.4488 32.8751 34.6692 32.9677C34.8896 33.0603 35.0892 33.1959 35.2565 33.3667L41.9998 40.1567V44.3333ZM48.9998 9.33333H46.6665V7C46.6665 6.38116 46.4207 5.78767 45.9831 5.35008C45.5455 4.9125 44.952 4.66666 44.3332 4.66666C43.7143 4.66666 43.1208 4.9125 42.6833 5.35008C42.2457 5.78767 41.9998 6.38116 41.9998 7V9.33333H39.6665C39.0477 9.33333 38.4542 9.57916 38.0166 10.0167C37.579 10.4543 37.3332 11.0478 37.3332 11.6667C37.3332 12.2855 37.579 12.879 38.0166 13.3166C38.4542 13.7542 39.0477 14 39.6665 14H41.9998V16.3333C41.9998 16.9522 42.2457 17.5457 42.6833 17.9832C43.1208 18.4208 43.7143 18.6667 44.3332 18.6667C44.952 18.6667 45.5455 18.4208 45.9831 17.9832C46.4207 17.5457 46.6665 16.9522 46.6665 16.3333V14H48.9998C49.6187 14 50.2122 13.7542 50.6498 13.3166C51.0873 12.879 51.3332 12.2855 51.3332 11.6667C51.3332 11.0478 51.0873 10.4543 50.6498 10.0167C50.2122 9.57916 49.6187 9.33333 48.9998 9.33333V9.33333Z" fill="#5A5A5A"/>
</svg>
