<svg width="26" height="25" viewBox="0 0 26 25" fill="none" xmlns="http://www.w3.org/2000/svg">
<path d="M19.0558 6.19424C18.4681 4.69118 17.506 3.35588 16.2568 2.30983C15.0077 1.26378 13.5113 0.540186 11.9038 0.20489C10.2963 -0.130406 8.62864 -0.0667644 7.05264 0.390025C5.47663 0.846814 4.04228 1.68225 2.88009 2.82032C1.7179 3.95839 0.864755 5.36298 0.398285 6.90627C-0.0681858 8.44957 -0.133176 10.0826 0.209226 11.6567C0.551629 13.2309 1.29056 14.6963 2.35877 15.9194C3.42699 17.1426 4.7906 18.0848 6.32552 18.6604C6.91323 20.1634 7.87541 21.4987 9.12453 22.5448C10.3736 23.5908 11.87 24.3144 13.4776 24.6497C15.0851 24.985 16.7527 24.9214 18.3287 24.4646C19.9047 24.0078 21.3391 23.1724 22.5013 22.0343C23.6635 20.8962 24.5166 19.4916 24.9831 17.9483C25.4495 16.405 25.5145 14.772 25.1721 13.1979C24.8297 11.6237 24.0908 10.1584 23.0226 8.93516C21.9544 7.71197 20.5908 6.76975 19.0558 6.19424ZM17.0185 8.1893C17.1111 8.65776 17.158 9.13377 17.1588 9.61093C17.1561 10.1721 17.0886 10.7312 16.9575 11.2775L13.8466 8.24903C14.406 8.11784 14.9793 8.05167 15.5545 8.05192C16.0418 8.05265 16.5279 8.09865 17.0063 8.1893H17.0185ZM15.7985 13.6727C15.293 14.3827 14.6632 14.9995 13.9381 15.4946L9.53402 11.1819C10.0305 10.4744 10.6498 9.8578 11.364 9.36005L15.7985 13.6727ZM5.63624 15.4946C4.30055 14.5929 3.30858 13.2824 2.81615 11.7687C2.32372 10.255 2.35875 8.62409 2.91572 7.13204C3.28347 6.14641 3.86773 5.25187 4.62724 4.5116C5.38674 3.77134 6.30297 3.2034 7.31119 2.8479C8.31942 2.4924 9.39507 2.35801 10.4621 2.45423C11.5292 2.55045 12.5617 2.87493 13.4867 3.40475C14.4155 3.93175 15.2134 4.65394 15.8229 5.51927H15.5057C12.8892 5.53507 10.3858 6.56646 8.54479 8.38722C6.70374 10.208 5.6753 12.6694 5.68504 15.2317C5.68504 15.3333 5.68504 15.4468 5.68504 15.5423L5.63624 15.4946ZM8.30796 16.6115C8.21869 16.1426 8.17175 15.6669 8.16766 15.1899C8.17271 14.6266 8.24227 14.0656 8.37506 13.5174L11.4677 16.5458C10.9079 16.6759 10.335 16.744 9.75972 16.7489C9.29633 16.7609 8.8328 16.731 8.37506 16.6593L8.30796 16.6115ZM15.5545 22.4056C14.3638 22.4 13.192 22.1132 12.1386 21.5693C11.0848 21.0256 10.1823 20.2383 9.50962 19.2756H9.82681C12.4403 19.2693 14.9451 18.2507 16.7942 16.4422C18.6434 14.6336 19.6867 12.1821 19.6963 9.62287V9.31227C20.9903 10.1753 21.9676 11.4219 22.4847 12.869C23.0018 14.3161 23.0315 15.8874 22.5693 17.3522C22.1069 18.8191 21.1757 20.1018 19.9128 21.0115C18.65 21.9213 17.1223 22.4099 15.5545 22.4056Z" fill="url(#paint0_linear_56_78)"/>
<defs>
<linearGradient id="paint0_linear_56_78" x1="3.83044e-06" y1="12.4243" x2="25.3814" y2="12.4243" gradientUnits="userSpaceOnUse">
<stop offset="0.02" stop-color="#DBC1CC"/>
<stop offset="1" stop-color="white"/>
</linearGradient>
</defs>
</svg>
